<?xml version="1.0" encoding="iso-8859-1"?>
<!-- Generator: Adobe Illustrator 16.0.0, SVG Export Plug-In . SVG Version: 6.00 Build 0)  -->
<!DOCTYPE svg PUBLIC "-//W3C//DTD SVG 1.1//EN" "http://www.w3.org/Graphics/SVG/1.1/DTD/svg11.dtd">
<svg version="1.1" id="Capa_1" xmlns="http://www.w3.org/2000/svg" xmlns:xlink="http://www.w3.org/1999/xlink" x="0px" y="0px"
	 width="314.015px" height="314.015px" viewBox="0 0 314.015 314.015" style="enable-background:new 0 0 314.015 314.015;"
	 xml:space="preserve">
<g>
	<g id="_x32_21._Calculator">
		<g>
			<path d="M204.111,172.708c-8.664,0-15.701,7.037-15.701,15.701s7.037,15.701,15.701,15.701c8.676,0,15.701-7.037,15.701-15.701
				S212.787,172.708,204.111,172.708z M204.111,125.605c-8.664,0-15.701,7.027-15.701,15.701c0,8.668,7.037,15.701,15.701,15.701
				c8.676,0,15.701-7.033,15.701-15.701C219.812,132.632,212.787,125.605,204.111,125.605z M157.008,172.708
				c-8.666,0-15.701,7.037-15.701,15.701s7.035,15.701,15.701,15.701c8.664,0,15.701-7.037,15.701-15.701
				S165.672,172.708,157.008,172.708z M157.008,125.605c-8.666,0-15.701,7.027-15.701,15.701c0,8.668,7.027,15.693,15.701,15.693
				c8.68,0,15.701-7.033,15.701-15.693C172.709,132.632,165.672,125.605,157.008,125.605z M109.906,94.205h94.205
				c8.676,0,15.701-7.035,15.701-15.701s-7.025-15.701-15.701-15.701h-94.205c-8.668,0-15.701,7.035-15.701,15.701
				S101.238,94.205,109.906,94.205z M109.906,251.206L109.906,251.206c8.674,0,15.701-7.033,15.701-15.693
				c0-8.68-7.027-15.701-15.701-15.701l0,0c-8.668,0-15.701,7.021-15.701,15.701C94.205,244.173,101.238,251.206,109.906,251.206z
				 M251.214,0H62.803c-17.34,0-31.4,14.052-31.4,31.402v251.21c0,17.344,14.06,31.402,31.4,31.402h188.411
				c17.341,0,31.398-14.059,31.398-31.402V31.402C282.612,14.052,268.555,0,251.214,0z M251.214,282.612H62.803V31.402h188.411
				V282.612z M157.008,219.812c-8.666,0-15.701,7.021-15.701,15.701c0,8.66,7.027,15.693,15.701,15.693
				c8.68,0,15.701-7.033,15.701-15.693C172.709,226.833,165.672,219.812,157.008,219.812z M109.906,204.11L109.906,204.11
				c8.674,0,15.701-7.037,15.701-15.701s-7.027-15.701-15.701-15.701l0,0c-8.668,0-15.701,7.037-15.701,15.701
				S101.238,204.11,109.906,204.11z M109.906,157.007L109.906,157.007c8.674,0,15.701-7.033,15.701-15.701
				c0-8.674-7.027-15.701-15.701-15.701l0,0c-8.668,0-15.701,7.027-15.701,15.701C94.205,149.974,101.238,157.007,109.906,157.007z
				 M204.111,219.812c-8.664,0-15.701,7.021-15.701,15.701c0,8.66,7.037,15.693,15.701,15.693c8.676,0,15.701-7.033,15.701-15.693
				C219.812,226.833,212.787,219.812,204.111,219.812z"/>
		</g>
	</g>
</g>
<g>
</g>
<g>
</g>
<g>
</g>
<g>
</g>
<g>
</g>
<g>
</g>
<g>
</g>
<g>
</g>
<g>
</g>
<g>
</g>
<g>
</g>
<g>
</g>
<g>
</g>
<g>
</g>
<g>
</g>
</svg>
